# xmcd
#
# Track frame offsets:
#	150
#	12005
#	23690
#	33005
#	45592
#	61987
#	73732
#	85957
#	98379
#	110497
#	122992
#	136027
#	147827
#	160227
#	171347
#	188502
#	208095
#	220547
#	243015
#	256270
#
# Disc length: 3606 seconds
#
# Revision: 0
# Processed by: cddbd v1.4PL0 Copyright (c) Steve Scherf et al.
# Submitted via: EZCDDA 4.3.3.2
#
DISCID=000e1414
DTITLE=Piano Bar - Piano Bar Vol.1
DYEAR=1900
DGENRE=
TTITLE0=Cocktails For Two
TTITLE1=Smoke Gets In Your Eyes
TTITLE2=Lullaby Of Broadway
TTITLE3=Nous Avions Vingt Ans
TTITLE4=You Go To My Head
TTITLE5=Where Or When
TTITLE6=There's A Small Hotel
TTITLE7=I Only Have Eyes For You
TTITLE8=My Funny Valentine
TTITLE9=Bewitched
TTITLE10='Deed I Do
TTITLE11=I Didn't Know What Time It Was
TTITLE12=Lovely To Look At
TTITLE13=Rose Room
TTITLE14=Darn That Dream
TTITLE15=It's Easy To Remember
TTITLE16=You And The Night And The Music
TTITLE17=You Are Too Beautiful
TTITLE18=Prelude To A Kiss
TTITLE19=The Nearness Of You
EXTD=
EXTT0=
EXTT1=
EXTT2=
EXTT3=
EXTT4=
EXTT5=
EXTT6=
EXTT7=
EXTT8=
EXTT9=
EXTT10=
EXTT11=
EXTT12=
EXTT13=
EXTT14=
EXTT15=
EXTT16=
EXTT17=
EXTT18=
EXTT19=
PLAYORDER=
